<svg width="331" height="193" viewBox="0 0 331 193" fill="none" xmlns="http://www.w3.org/2000/svg">
<path d="M165 10.6379H194.857L227.202 60.7875V92.7009H199.833L165 47.1104V10.6379Z" fill="white"/>
<path d="M165 10.6379H194.857L227.202 60.7875V92.7009H199.833L165 47.1104V10.6379Z" fill="white"/>
<path d="M227.202 92.7009H254.571L329.214 193H274.476L227.202 124.614V92.7009Z" fill="white"/>
<path d="M227.202 92.7009H254.571L329.214 193H274.476L227.202 124.614V92.7009Z" fill="white"/>
<path d="M227.202 92.7009H199.833L165 138.291V193H179.929L227.202 124.614V92.7009Z" fill="white"/>
<path d="M227.202 92.7009H199.833L165 138.291V193H179.929L227.202 124.614V92.7009Z" fill="white"/>
<path d="M227.202 92.7006L227.202 60.7871L259.548 10.6375L314.286 10.6375L254.571 92.7005L227.202 92.7006Z" fill="white"/>
<path d="M227.202 92.7006L227.202 60.7871L259.548 10.6375L314.286 10.6375L254.571 92.7005L227.202 92.7006Z" fill="white"/>
<rect x="82" y="45" width="42" height="148" fill="white"/>
<rect width="157" height="35.4" transform="matrix(1 0 0 -1 0 46)" fill="white"/>
</svg>
