<svg width="733" height="281" viewBox="0 0 733 281" fill="none" xmlns="http://www.w3.org/2000/svg">
<path d="M566.409 11.0254H594.967L625.906 63.0028V96.0793H599.727L566.409 48.8271V11.0254Z" fill="white"/>
<path d="M566.409 11.0254H594.967L625.906 63.0028V96.0793H599.727L566.409 48.8271V11.0254Z" fill="white"/>
<path d="M625.906 96.0791H652.084L723.48 200.034H671.123L625.906 129.156V96.0791Z" fill="white"/>
<path d="M625.906 96.0791H652.084L723.48 200.034H671.123L625.906 129.156V96.0791Z" fill="white"/>
<path d="M625.906 96.0791H599.727L566.409 143.331V200.034H580.688L625.906 129.156V96.0791Z" fill="white"/>
<path d="M625.906 96.0791H599.727L566.409 143.331V200.034H580.688L625.906 129.156V96.0791Z" fill="white"/>
<path d="M625.906 96.0786L625.906 63.002L656.844 11.0247L709.201 11.0247L652.084 96.0786L625.906 96.0786Z" fill="white"/>
<path d="M625.906 96.0786L625.906 63.002L656.844 11.0247L709.201 11.0247L652.084 96.0786L625.906 96.0786Z" fill="white"/>
<rect x="479" y="168" width="73" height="32" fill="white"/>
<rect x="479" y="117" width="73" height="28" fill="white"/>
<rect x="479" y="62" width="73" height="32" fill="white"/>
<rect x="437.896" y="61.9153" width="42.8377" height="138.119" fill="white"/>
<path d="M304.623 78.5848C304.623 69.3785 312.087 61.9153 321.293 61.9153H338.968H364.31C367.443 61.9153 370.57 62.202 373.652 62.7717L377.072 63.404C380.269 63.9952 383.349 65.1009 386.192 66.678V66.678L390.485 69.0594V69.0594C393.341 70.6434 396.042 72.492 398.552 74.5807L401.814 77.2948C402.847 78.1537 403.816 79.0854 404.715 80.0829V80.0829C406.665 82.2462 408.267 84.6993 409.464 87.3544L409.804 88.1102V88.1102C411.23 91.2734 412.262 94.5995 412.878 98.0141L413.194 99.771C413.795 103.103 414.097 106.483 414.097 109.869V113.978C414.097 117.365 413.795 120.744 413.194 124.076L412.878 125.833C412.262 129.248 411.23 132.574 409.804 135.737V135.737V135.737C408.382 138.893 406.478 141.809 404.16 144.38L403.365 145.263L402.619 146.029C400.262 148.453 397.631 150.593 394.778 152.407V152.407L390.485 154.788V154.788C384.786 157.675 378.731 159.798 372.476 161.101L369.451 161.731C368.808 161.865 368.152 161.932 367.495 161.932H321.293C312.087 161.932 304.623 154.469 304.623 145.263V145.263C304.623 136.056 312.087 128.593 321.293 128.593H360.434H361.407C364.583 128.593 367.738 128.079 370.75 127.07L372.398 126.518C373.007 126.315 373.596 126.055 374.157 125.744V125.744C376.381 124.51 378.081 122.512 378.944 120.12L379.672 118.102C381.1 114.139 380.931 109.776 379.201 105.936L378.589 104.579C377.938 103.134 377.066 101.799 376.005 100.622V100.622C374.24 98.6643 372 97.1958 369.501 96.3588L368.924 96.1658C367.122 95.5621 365.233 95.2543 363.332 95.2543L360.434 95.2543H321.293C312.087 95.2543 304.623 87.7911 304.623 78.5848V78.5848Z" fill="white"/>
<rect x="304.623" y="61.9153" width="38.0779" height="138.119" fill="white"/>
<path d="M414.097 111.922C414.097 142.924 401.922 161.932 362.961 161.932C304.973 161.932 382.423 138.285 380.007 112.035C380.007 83.6357 294.718 65.6573 354.353 62.1381C394.617 59.762 414.097 76.3944 414.097 111.922Z" fill="white"/>
<path d="M143.252 63.1286L185.364 63.3424L214.5 110L195.5 148.5L143.252 63.1286Z" fill="white"/>
<path d="M214 110L233 148L285.585 63.6015L242.747 63.6014L214 110Z" fill="white"/>
<path d="M233.227 200.422L195.031 200.422L195.149 147.644L214.188 109.542L233.227 147.644L233.227 200.422Z" fill="white"/>
<rect x="85.6753" y="47.6271" width="42.8377" height="152.407" fill="white"/>
<rect y="11.2114" width="552.13" height="37.1531" fill="white"/>
<path d="M112.045 241.63C111.815 239.687 110.882 238.178 109.245 237.105C107.609 236.031 105.602 235.494 103.224 235.494C101.486 235.494 99.9642 235.775 98.6602 236.338C97.369 236.9 96.3591 237.673 95.6304 238.658C94.9145 239.642 94.5565 240.761 94.5565 242.014C94.5565 243.062 94.8058 243.963 95.3044 244.718C95.8158 245.459 96.4678 246.079 97.2604 246.578C98.053 247.063 98.884 247.466 99.7533 247.786C100.623 248.093 101.422 248.342 102.15 248.534L106.139 249.607C107.162 249.876 108.299 250.247 109.552 250.72C110.818 251.193 112.026 251.838 113.177 252.656C114.34 253.462 115.299 254.497 116.053 255.763C116.807 257.029 117.184 258.582 117.184 260.423C117.184 262.545 116.628 264.463 115.516 266.176C114.417 267.889 112.806 269.25 110.684 270.26C108.574 271.27 106.011 271.775 102.994 271.775C100.182 271.775 97.7462 271.321 95.6879 270.414C93.6425 269.506 92.0317 268.24 90.8555 266.617C89.6922 264.993 89.0338 263.107 88.8804 260.96H93.7895C93.9173 262.443 94.4159 263.67 95.2852 264.642C96.1673 265.6 97.2796 266.316 98.6219 266.789C99.977 267.249 101.434 267.48 102.994 267.48C104.809 267.48 106.439 267.186 107.884 266.598C109.329 265.997 110.473 265.166 111.316 264.105C112.16 263.031 112.582 261.778 112.582 260.346C112.582 259.042 112.218 257.981 111.489 257.163C110.76 256.345 109.802 255.68 108.613 255.169C107.424 254.657 106.139 254.21 104.758 253.826L99.9259 252.446C96.8577 251.563 94.4287 250.304 92.6389 248.668C90.8492 247.031 89.9543 244.89 89.9543 242.244C89.9543 240.045 90.5487 238.127 91.7377 236.491C92.9394 234.842 94.5502 233.563 96.57 232.656C98.6027 231.735 100.872 231.275 103.378 231.275C105.909 231.275 108.159 231.729 110.128 232.637C112.096 233.531 113.656 234.759 114.807 236.318C115.97 237.878 116.584 239.649 116.647 241.63H112.045ZM183.759 231.812V271.085H179.003V231.812H183.759ZM268.772 241.63C268.542 239.687 267.608 238.178 265.972 237.105C264.336 236.031 262.329 235.494 259.951 235.494C258.212 235.494 256.691 235.775 255.387 236.338C254.096 236.9 253.086 237.673 252.357 238.658C251.641 239.642 251.283 240.761 251.283 242.014C251.283 243.062 251.532 243.963 252.031 244.718C252.542 245.459 253.194 246.079 253.987 246.578C254.78 247.063 255.611 247.466 256.48 247.786C257.349 248.093 258.148 248.342 258.877 248.534L262.865 249.607C263.888 249.876 265.026 250.247 266.279 250.72C267.544 251.193 268.753 251.838 269.903 252.656C271.066 253.462 272.025 254.497 272.78 255.763C273.534 257.029 273.911 258.582 273.911 260.423C273.911 262.545 273.355 264.463 272.243 266.176C271.143 267.889 269.532 269.25 267.41 270.26C265.301 271.27 262.738 271.775 259.721 271.775C256.908 271.775 254.473 271.321 252.414 270.414C250.369 269.506 248.758 268.24 247.582 266.617C246.419 264.993 245.76 263.107 245.607 260.96H250.516C250.644 262.443 251.142 263.67 252.012 264.642C252.894 265.6 254.006 266.316 255.348 266.789C256.704 267.249 258.161 267.48 259.721 267.48C261.536 267.48 263.166 267.186 264.611 266.598C266.055 265.997 267.199 265.166 268.043 264.105C268.887 263.031 269.309 261.778 269.309 260.346C269.309 259.042 268.944 257.981 268.216 257.163C267.487 256.345 266.528 255.68 265.339 255.169C264.15 254.657 262.865 254.21 261.485 253.826L256.652 252.446C253.584 251.563 251.155 250.304 249.365 248.668C247.576 247.031 246.681 244.89 246.681 242.244C246.681 240.045 247.275 238.127 248.464 236.491C249.666 234.842 251.277 233.563 253.297 232.656C255.329 231.735 257.598 231.275 260.104 231.275C262.635 231.275 264.885 231.729 266.854 232.637C268.823 233.531 270.383 234.759 271.533 236.318C272.696 237.878 273.31 239.649 273.374 241.63H268.772ZM333.582 236.031V231.812H363.037V236.031H350.687V271.085H345.932V236.031H333.582ZM424.377 271.085V231.812H448.078V236.031H429.132V249.301H446.851V253.519H429.132V266.866H448.385V271.085H424.377ZM510.65 231.812H516.326L529.673 264.411H530.133L543.479 231.812H549.156V271.085H544.707V241.247H544.323L532.051 271.085H527.755L515.482 241.247H515.099V271.085H510.65V231.812ZM614.302 271.085H609.316L623.736 231.812H628.646L643.066 271.085H638.08L626.344 238.025H626.038L614.302 271.085ZM616.143 255.744H636.239V259.963H616.143V255.744ZM724.66 241.63C724.43 239.687 723.497 238.178 721.861 237.105C720.224 236.031 718.217 235.494 715.839 235.494C714.101 235.494 712.579 235.775 711.276 236.338C709.984 236.9 708.974 237.673 708.246 238.658C707.53 239.642 707.172 240.761 707.172 242.014C707.172 243.062 707.421 243.963 707.92 244.718C708.431 245.459 709.083 246.079 709.876 246.578C710.668 247.063 711.499 247.466 712.369 247.786C713.238 248.093 714.037 248.342 714.766 248.534L718.754 249.607C719.777 249.876 720.915 250.247 722.168 250.72C723.433 251.193 724.641 251.838 725.792 252.656C726.955 253.462 727.914 254.497 728.668 255.763C729.423 257.029 729.8 258.582 729.8 260.423C729.8 262.545 729.244 264.463 728.131 266.176C727.032 267.889 725.421 269.25 723.299 270.26C721.19 271.27 718.626 271.775 715.609 271.775C712.797 271.775 710.361 271.321 708.303 270.414C706.258 269.506 704.647 268.24 703.471 266.617C702.307 264.993 701.649 263.107 701.496 260.96H706.405C706.533 262.443 707.031 263.67 707.901 264.642C708.783 265.6 709.895 266.316 711.237 266.789C712.592 267.249 714.05 267.48 715.609 267.48C717.425 267.48 719.055 267.186 720.499 266.598C721.944 265.997 723.088 265.166 723.932 264.105C724.776 263.031 725.197 261.778 725.197 260.346C725.197 259.042 724.833 257.981 724.104 257.163C723.376 256.345 722.417 255.68 721.228 255.169C720.039 254.657 718.754 254.21 717.374 253.826L712.541 252.446C709.473 251.563 707.044 250.304 705.254 248.668C703.464 247.031 702.57 244.89 702.57 242.244C702.57 240.045 703.164 238.127 704.353 236.491C705.555 234.842 707.165 233.563 709.185 232.656C711.218 231.735 713.487 231.275 715.993 231.275C718.524 231.275 720.774 231.729 722.743 232.637C724.712 233.531 726.271 234.759 727.422 236.318C728.585 237.878 729.199 239.649 729.263 241.63H724.66Z" fill="white"/>
</svg>
